<?xml version="1.0" encoding="UTF-8" standalone="no"?>
<svg xmlns="http://www.w3.org/2000/svg" xmlns:xlink="http://www.w3.org/1999/xlink" width="208" height="319">
  <defs>
    <path id="d" d="M6.9527589 181.37067c-.37341-2.0752-1.856084-11.39331-3.039615-14.59041-3.02466684-4.6548 2.045655-10.25693 6.3435171-7.92274 6.442562 3.00274 18.522619 10.10051 23.479391 11.36725 5.784438 2.62935 26.97037 7.39239 28.513311 7.58399 1.914378.4326 17.411819 2.2558 18.05328 2.1982 4.727035.4969 14.84196 1.0651 22.367747.9977h75.10106V79.178905c-.87882-6.459601-3.02378-14.03928-4.90172-19.61473-2.01532-6.4068-3.7558-12.8611-5.65796-19.29326-2.25326-6.73243-6.67713-17.34641-8.16098-19.57791-2.50607-5.40818-11.08229-11.52555-4.44113-17.0682702 3.11197-3.09454 23.36746 2.35574 25.1316 2.43562 7.10517 1.0807205 12.85976.9873205 20.22088 1.2145505.9374.03568 9.39219.03429 13.03428.01606-.0199 7.1746697-.008 145.8077347-.008 205.3838947H7.9833049c0-1.2361-1.030396-30.06819-1.030396-31.30419z"/>
    <path id="e" d="M6.9527589 243.97905c-.37341 2.0752-1.856084 11.39331-3.039615 14.59041-3.02466684 4.6548 2.045655 10.25693 6.3435171 7.92274 6.442562-3.00274 18.522619-10.10051 23.479391-11.36725 5.784438-2.62935 26.97037-7.39239 28.513311-7.58399 1.914378-.4326 17.411819-2.2558 18.05328-2.1982 4.727035-.4969 14.84196-1.0651 22.367747-.9977h75.10106v101.82576c-.87882 6.4596-3.02378 14.03928-4.90172 19.61473-2.01532 6.40679-3.7558 12.86109-5.65796 19.29325-2.25326 6.73244-6.67713 17.34641-8.16098 19.57791-2.50607 5.40818-11.08229 11.52555-4.44113 17.06828 3.11197 3.09454 23.36746-2.35574 25.1316-2.43562 7.10517-1.08073 12.85976-.98733 20.22088-1.21456.9374-.0357 9.39219-.0343 13.03428-.0161-.0199-7.17467-.008-145.80773-.008-205.38389H7.9833049c0 1.2361-1.030396 30.06819-1.030396 31.30419zM419.04008 181.37067c.37341-2.0752 1.85609-11.39331 3.03962-14.59041 3.02466-4.6548-2.04566-10.25693-6.34352-7.92274-6.44256 3.00274-18.52262 10.10051-23.47939 11.36725-5.78444 2.62935-26.97037 7.39239-28.51331 7.58399-1.91438.4326-17.41182 2.2558-18.05328 2.1982-4.72704.4969-14.84196 1.0651-22.36775.9977h-75.10106V79.178905c.87882-6.459601 3.02378-14.03928 4.90172-19.61473 2.01532-6.4068 3.7558-12.8611 5.65796-19.29326 2.25326-6.73243 6.67713-17.34641 8.16098-19.57791 2.50607-5.40818 11.08229-11.52555 4.44113-17.0682702-3.11197-3.09454-23.36746 2.35574-25.1316 2.43562-7.10517 1.0807205-12.85976.9873205-20.22088 1.2145505-.9374.03568-9.39219.03429-13.03428.01606.0199 7.1746697.008 145.8077347.008 205.3838947h205.00512c0-1.2361 1.03039-30.06819 1.03039-31.30419z"/>
    <path id="f" d="M419.04008 243.97905c.37341 2.0752 1.85609 11.39331 3.03962 14.59041 3.02466 4.6548-2.04566 10.25693-6.34352 7.92274-6.44256-3.00274-18.52262-10.10051-23.47939-11.36725-5.78444-2.62935-26.97037-7.39239-28.51331-7.58399-1.91438-.4326-17.41182-2.2558-18.05328-2.1982-4.72704-.4969-14.84196-1.0651-22.36775-.9977h-75.10106v101.82576c.87882 6.4596 3.02378 14.03928 4.90172 19.61473 2.01532 6.40679 3.7558 12.86109 5.65796 19.29325 2.25326 6.73244 6.67713 17.34641 8.16098 19.57791 2.50607 5.40818 11.08229 11.52555 4.44113 17.06828-3.11197 3.09454-23.36746-2.35574-25.1316-2.43562-7.10517-1.08073-12.85976-.98733-20.22088-1.21456-.9374-.0357-9.39219-.0343-13.03428-.0161.0199-7.17467.008-145.80773.008-205.38389h205.00512c0 1.2361 1.03039 30.06819 1.03039 31.30419z"/>
  </defs>
  <defs>
    <linearGradient id="a">
      <stop offset="0" stop-color="#fff"/>
      <stop offset="1" stop-color="#ccc"/>
    </linearGradient>
    <linearGradient xlink:href="#a" id="b" x1="135.06662" x2="-384.7966" y1="-723.17877" y2="-723.17877" gradientTransform="translate(-2.1e-7 1605)" gradientUnits="userSpaceOnUse"/>
    <clipPath id="c">
      <rect width="164.40321" height="277.0032" x="21.798393" y="20.912563" fill="none" stroke="#8ae234" stroke-width=".19678587" rx="4.0097499" ry="5.9999948"/>
    </clipPath>
  </defs>
  <g transform="translate(0 -733.36218)">
    <rect width="207" height="318" x=".5" y="733.86218" fill="url(#b)" stroke="#000" stroke-linecap="square" rx="15" ry="15"/>
    <g transform="translate(0 733.36218)">
      <g fill="#28284e">
        <rect width="179" height="290" x="14.5" y="14.5" fill="#ff2a2a" rx="10.529411" ry="12.608695"/>
        <rect width="168" height="280" x="20" y="19.5" fill="#ff2a2a" stroke="#fff" stroke-width="2" rx="8" ry="8"/>
      </g>
      <g clip-path="url(#c)" transform="translate(0 .085835)">
        <g id="n" transform="translate(-.814505)">
          <g id="m">
            <g transform="translate(-.0005596 -131.54091)">
              <g id="g" fill="#fff" fill-opacity="1" stroke="none" transform="matrix(-.04786 -.00004 .00004 -.05016 123.07002 158.98276)">
                <g transform="rotate(29.954 103.70802139 113.42025731) scale(.5)">
                  <use xlink:href="#d"/>
                  <use xlink:href="#e"/>
                  <use xlink:href="#f"/>
                </g>
                <g transform="rotate(149.954 198.71847895 132.26294131) scale(.5)">
                  <use xlink:href="#d"/>
                  <use xlink:href="#e"/>
                  <use xlink:href="#f"/>
                </g>
                <g transform="rotate(149.954 65.6230597 265.46557452) scale(.5)">
                  <use xlink:href="#d"/>
                  <use xlink:href="#e"/>
                  <use xlink:href="#f"/>
                </g>
                <g transform="matrix(-.0004 -.5 .5 -.0004 94.469818 372.68713)">
                  <use xlink:href="#d"/>
                  <use xlink:href="#e"/>
                  <use xlink:href="#f"/>
                </g>
                <g transform="rotate(29.954 -393.70447671 611.23375703) scale(.5)">
                  <use xlink:href="#d"/>
                  <use xlink:href="#e"/>
                  <use xlink:href="#f"/>
                </g>
              </g>
              <use xlink:href="#g" width="208" height="319" transform="translate(0 26.347469)"/>
              <use xlink:href="#g" width="208" height="319" transform="translate(0 52.694938)"/>
              <use xlink:href="#g" width="208" height="319" transform="translate(0 79.042407)"/>
              <use xlink:href="#g" width="208" height="319" transform="translate(0 105.38988)"/>
              <use xlink:href="#g" width="208" height="319" transform="translate(0 131.73735)"/>
              <use xlink:href="#g" width="208" height="319" transform="translate(18.6129)"/>
              <use xlink:href="#g" width="208" height="319" transform="translate(18.6129 26.347469)"/>
              <use xlink:href="#g" width="208" height="319" transform="translate(18.6129 52.694938)"/>
              <use xlink:href="#g" width="208" height="319" transform="translate(18.6129 79.042407)"/>
              <use xlink:href="#g" width="208" height="319" transform="translate(18.6129 105.38988)"/>
              <use xlink:href="#g" width="208" height="319" transform="translate(18.6129 131.73735)"/>
              <use xlink:href="#g" width="208" height="319" transform="translate(37.2258)"/>
              <use xlink:href="#g" width="208" height="319" transform="translate(37.2258 26.347469)"/>
              <use xlink:href="#g" width="208" height="319" transform="translate(37.2258 52.694938)"/>
              <use xlink:href="#g" width="208" height="319" transform="translate(37.2258 79.042407)"/>
              <use xlink:href="#g" width="208" height="319" transform="translate(37.2258 105.38988)"/>
              <use xlink:href="#g" width="208" height="319" transform="translate(37.2258 131.73735)"/>
              <use xlink:href="#g" width="208" height="319" transform="translate(55.8387)"/>
              <use xlink:href="#g" width="208" height="319" transform="translate(55.8387 26.347469)"/>
              <use xlink:href="#g" width="208" height="319" transform="translate(55.8387 52.694938)"/>
              <use xlink:href="#g" width="208" height="319" transform="translate(55.8387 79.042407)"/>
              <use xlink:href="#g" width="208" height="319" transform="translate(55.8387 105.38988)"/>
              <use xlink:href="#g" width="208" height="319" transform="translate(55.8387 131.73735)"/>
              <use xlink:href="#g" width="208" height="319" transform="translate(74.4516)"/>
              <use xlink:href="#g" width="208" height="319" transform="translate(74.4516 26.347469)"/>
              <use xlink:href="#g" width="208" height="319" transform="translate(74.4516 52.694938)"/>
              <use xlink:href="#g" width="208" height="319" transform="translate(74.4516 79.042407)"/>
              <use xlink:href="#g" width="208" height="319" transform="translate(74.4516 105.38988)"/>
              <use xlink:href="#g" width="208" height="319" transform="translate(74.4516 131.73735)"/>
            </g>
            <path id="j" fill="#ff2a2a" fill-opacity="1" stroke="#fff" stroke-dasharray="none" stroke-linecap="square" stroke-linejoin="miter" stroke-miterlimit="4" stroke-opacity="1" stroke-width=".96903104" d="M108.37128 156.8043c.75131-.20864 2.12617-2.19233 2.95059-2.71604.5835-.37064 1.12719-.6726 1.36729-.75931.22365-.0807 1.30961-.35121 1.7359-.33099.18964.009.35931.006.3773-.007.0193-.0139.004-.0582-.0384-.10859-.0768-.0921-.2922-.71374-.28642-.82645.008-.13301.1479-.4469.36219-.80618.28249-.47332.85005-1.16832 1.15032-1.40845.27503-.21992.5452-.38677.78244-.48325.17918-.0728.94123-.32631 1.1327-.37672.0598-.0157.0488-.0275-.0959-.0961-.23881-.11444-.67617-.58801-.76121-.82448-.0776-.21551-.0451-.54898.0916-.94274.21148-.60892.43425-.93943.82379-1.22223.12159-.0882.26805-.20404.32546-.25726.1166-.10799.43141-.26534.6432-.32126.0764-.0199.14359-.0425.14931-.0493.007-.008-.0405-.0342-.10397-.0581-.15745-.0656-.53022-.51429-.60378-.72655-.16725-.48206-.0179-1.28901.34712-1.8706.14184-.22616.6589-.7762.87916-.93516.30052-.21686.30037-.21583.0507-.32257-.119-.0507-.28176-.15744-.36514-.23084-.13243-.12315-.1529-.15922-.18473-.32715-.0763-.40496.004-1.31871.17073-1.9475.0853-.32128-.5272-2.87157-.5272-2.87157s-2.49299.81488-2.72194 1.05585c-.44805.47168-1.18431 1.01875-1.56919 1.16599-.15971.0608-.20116.0624-.37543.0142-.10622-.0324-.28237-.11529-.38797-.18999-.22171-.15667-.22092-.15737-.24812.21227-.02.27089-.21747.99952-.33574 1.23883-.30421.61533-.91304 1.16575-1.41125 1.27592-.21934.0486-.79678-.0338-.93521-.13346-.0538-.0415-.10087-.0677-.10395-.0581-.003.009.0132.0776.0361.15297.0635.2097.0943.56025.0634.71615-.0153.0769-.0371.26223-.0486.41202-.0367.47997-.20147.84291-.60924 1.34212-.2637.32283-.53071.52521-.75492.57207-.24596.0515-.87848-.0728-1.10111-.21624-.13431-.0874-.14995-.0907-.13205-.0313.0575.18948.24085.97134.27274 1.16213.0422.25262.0417.57013-.002.91963-.0472.38158-.34165 1.22918-.59673 1.71782-.19369.37077-.38712.65541-.49681.73096-.0929.064-.73539.20629-.85397.18916-.0651-.01-.11077.0002-.11253.0241-.00076.0223.0843.16843.19113.32537.24063.35245.57937 1.4191.62782 1.65188.052.24993.0798.87126.0698 1.56242-.0143.9766-.98298 3.18713-.76696 3.93634.13893.48176-.5241 1.89544-.0424 2.34055.63149.17694 1.48805-1.12862 1.97116-1.26275z"/>
            <path id="h" fill="#ff2a2a" fill-opacity="1" stroke="#fff" stroke-dasharray="none" stroke-miterlimit="4" stroke-opacity="1" stroke-width="1" d="M108.49887 158.23169c0 .66236-.55381 1.19931-1.23696 1.19931H104.788v-2.39862c0-.66236.55381-1.19931 1.23696-1.19931s1.23695.53695 1.23695 1.19931c.68315 0 1.23696.53695 1.23696 1.19931z"/>
            <g id="i" transform="translate(.189928 1.00043)">
              <use xlink:href="#h" width="208" height="319" transform="rotate(-90 108.347221 154.871349)"/>
              <use xlink:href="#h" width="208" height="319" transform="translate(8.0920479 -1.00043)"/>
            </g>
            <use xlink:href="#i" id="k" width="208" height="319" x="0" y="0" transform="rotate(90 113.0964445 151.1226055)"/>
            <use xlink:href="#j" width="208" height="319" transform="translate(12.719947 -22.471907)"/>
            <use xlink:href="#j" width="208" height="319" transform="translate(25.483006 -44.837814)"/>
            <use xlink:href="#j" width="208" height="319" transform="translate(38.034065 -66.991722)"/>
            <use xlink:href="#j" width="208" height="319" transform="translate(50.685796 -89.313722)"/>
            <use xlink:href="#j" width="208" height="319" transform="translate(62.924184 -111.08754)"/>
            <g transform="translate(.84799648 -1.8019925)">
              <use xlink:href="#i" width="208" height="319" transform="translate(67.743108 -132.73114)"/>
              <use xlink:href="#i" width="208" height="319" transform="matrix(1 0 0 -1 67.743108 186.13113)"/>
            </g>
            <use xlink:href="#k" width="208" height="319" transform="translate(0 -82.820759)"/>
            <use xlink:href="#k" width="208" height="319" transform="translate(0 -74.538683)"/>
            <use xlink:href="#k" width="208" height="319" transform="translate(0 -66.256607)"/>
            <use xlink:href="#k" width="208" height="319" transform="translate(0 -57.974531)"/>
            <use xlink:href="#k" width="208" height="319" transform="translate(0 -49.692456)"/>
            <use xlink:href="#k" width="208" height="319" transform="translate(0 -41.41038)"/>
            <use xlink:href="#k" width="208" height="319" transform="translate(0 -33.128304)"/>
            <use xlink:href="#k" width="208" height="319" transform="translate(0 -24.846228)"/>
            <use xlink:href="#k" width="208" height="319" transform="translate(0 -16.564152)"/>
            <use xlink:href="#k" width="208" height="319" transform="translate(0 -8.282076)"/>
            <use xlink:href="#k" width="208" height="319" transform="translate(0 -91.102735)"/>
            <use xlink:href="#k" width="208" height="319" transform="translate(0 -99.384711)"/>
            <use xlink:href="#i" width="208" height="319" transform="translate(8.2819759)"/>
            <use xlink:href="#i" width="208" height="319" transform="translate(16.563952)"/>
            <use xlink:href="#i" width="208" height="319" transform="translate(24.845928)"/>
            <use xlink:href="#i" width="208" height="319" transform="translate(33.127904)"/>
            <use xlink:href="#i" width="208" height="319" transform="translate(41.40988)"/>
            <use xlink:href="#i" width="208" height="319" transform="translate(49.691856)"/>
            <use xlink:href="#l" width="208" height="319" fill="#ff2a2a" transform="matrix(0 -1 -1 0 208.06475 264.164)"/>
            <use xlink:href="#k" width="208" height="319" transform="translate(0 -107.66669)"/>
            <path id="l" fill="#ff2a2a" fill-opacity="1" fill-rule="nonzero" stroke="#fff" stroke-dasharray="none" stroke-linecap="square" stroke-linejoin="miter" stroke-miterlimit="4" stroke-opacity="1" stroke-width="1" d="m104.25142 24.217193.61897-1.825879s.78491 1.327871.86721 1.649941c.16098.630321.53689 1.467091.80101 1.783432.10969.131379.14515.152939.32081.195489.1086.02593.30274.03669.43138.02303.26994-.0286.26957-.02955.11302.306339-.11473.246215-.29776.978545-.31126 1.245175-.0346.685547.22838 1.463032.60954 1.802336.16776.149339.71203.359105.8815.339685.0671-.0078.12109-.0068.11909.002-.002.0088-.0494.06094-.10631.115789-.1576.152179-.35565.44306-.40475.594233-.0242.07451-.0956.247025-.15861.383375-.2021.436834-.23532.834008-.1229 1.468741.0727.410514.2071.717419.37993.867714.18959.164875.80238.365021 1.0667.348331.15985-.01005.17505-.0058.13055.03728-.14254.137433-.6841.730457-.80501.881465-.16001.199889-.31447.477381-.44728.803531-.14498.356079-.30149 1.239623-.31709 1.790644-.0118.418107.0181.760963.0771.880411.0499.101209.54133.538902.65318.581742.0614.02352.0964.05455.0864.07651-.009.02032-.15579.106136-.32558.190746-.38203.190316-1.19807.956159-1.3539 1.13577-.16731.192814-.49462.721605-.82317 1.329823-.46418.859313-.80755 3.261688-1.36161 3.810319l-.9205-2.060498"/>
          </g>
          <use xlink:href="#m" width="208" height="319" transform="matrix(-1 0 0 1 209.62901 .00000174)"/>
        </g>
        <use xlink:href="#n" width="208" height="319" transform="matrix(1 0 0 -1 3.9e-7 318.82833)"/>
      </g>
    </g>
  </g>
</svg>